<?xml version="1.0" encoding="utf-8" standalone="yes"?>
<!DOCTYPE svg PUBLIC "-//W3C//DTD SVG 1.1//EN" "http://www.w3.org/Graphics/SVG/1.1/DTD/svg11.dtd">
<svg width="852" height="750" viewBox="0 0 852 750" style="fill:none;stroke:none;fill-rule:evenodd;clip-rule:evenodd;stroke-linecap:round;stroke-linejoin:round;stroke-miterlimit:1.5;" version="1.1" xmlns="http://www.w3.org/2000/svg" xmlns:xlink="http://www.w3.org/1999/xlink"><style class="text-font-style fontImports" data-font-family="Roboto">@import url('https://fonts.googleapis.com/css2?family=Roboto:wght@400;700&amp;display=block');</style><g id="items" style="isolation: isolate"><g id="blend" style="mix-blend-mode: normal"><g id="g-root-ro_1cws7glu0yvia-fill" data-item-order="1999965368" transform="translate(386, 221)"><g id="ro_1cws7glu0yvia-fill" stroke="none" fill="url(#gradient-cbcbcb-248399021)"><g><path d="M 34 10L 142 10C 142 10 166 10 166 34L 166 208C 166 208 166 232 142 232L 34 232C 34 232 10 232 10 208L 10 34C 10 34 10 10 34 10"></path></g></g></g><g id="g-root-ro_1uo0zphuax155-fill" data-item-order="1999982504" transform="translate(14, 122)"><g id="ro_1uo0zphuax155-fill" stroke="none" fill="url(#gradient-fb85cc-431468215)"><g><path d="M 22 10L 322 10C 322 10 334 10 334 22L 334 52C 334 52 334 64 322 64L 22 64C 22 64 10 64 10 52L 10 22C 10 22 10 10 22 10"></path></g></g></g><g id="g-root-ro_1qf2pj9uavm6j-fill" data-item-order="1999985744" transform="translate(74, 416)"><g id="ro_1qf2pj9uavm6j-fill" stroke="none" fill="url(#gradient-bceb57-497517668)"><g><path d="M 22 10L 262 10C 262 10 274 10 274 22L 274 52C 274 52 274 64 262 64L 22 64C 22 64 10 64 10 52L 10 22C 10 22 10 10 22 10"></path></g></g></g><g id="g-root-ro_18gc891u133m4-fill" data-item-order="1999988984" transform="translate(590, 140)"><g id="ro_18gc891u133m4-fill" stroke="none" fill="url(#gradient-ffed4b-499785973)"><g><path d="M 22 10L 202 10C 202 10 214 10 214 22L 214 52C 214 52 214 64 202 64L 22 64C 22 64 10 64 10 52L 10 22C 10 22 10 10 22 10"></path></g></g></g><g id="g-root-ro_94nf7pu0ytc8-fill" data-item-order="1999990928" transform="translate(590, 398)"><defs><linearGradient id="gradient-cbcbcb-248399021" x2="0" y2="1"><stop offset="0" stop-color="#d9d9d9"></stop><stop offset="1" stop-color="#bcbcbc"></stop></linearGradient><linearGradient id="gradient-fb85cc-431468215" x2="0" y2="1"><stop offset="0" stop-color="#ffa1da"></stop><stop offset="1" stop-color="#f669be"></stop></linearGradient><linearGradient id="gradient-bceb57-497517668" x2="0" y2="1"><stop offset="0" stop-color="#cff976"></stop><stop offset="1" stop-color="#a8dd38"></stop></linearGradient><linearGradient id="gradient-ffed4b-499785973" x2="0" y2="1"><stop offset="0" stop-color="#fff282"></stop><stop offset="1" stop-color="#ffe714"></stop></linearGradient><linearGradient id="gradient-64edab-240055791" x2="0" y2="1"><stop offset="0" stop-color="#83fac1"></stop><stop offset="1" stop-color="#44e095"></stop></linearGradient></defs><g id="ro_94nf7pu0ytc8-fill" stroke="none" fill="url(#gradient-64edab-240055791)"><g><path d="M 22 10L 166 10C 166 10 178 10 178 22L 178 52C 178 52 178 64 166 64L 22 64C 22 64 10 64 10 52L 10 22C 10 22 10 10 22 10"></path></g></g></g><g id="g-root-cu_1ut0seduax24n-fill" data-item-order="2000000000" transform="translate(296, 176)"></g><g id="g-root-cu_1hi6r45uax0jt-fill" data-item-order="2000000000" transform="translate(296, 176)"></g><g id="g-root-cu_18hjy6duax14w-fill" data-item-order="2000000000" transform="translate(542, 167)"></g><g id="g-root-tx_esp32_145hakluastfx-fill" data-item-order="2000000000" transform="translate(638, 464)"><g id="tx_esp32_145hakluastfx-fill" stroke="none" fill="#484848"><g><text style="font: 20px &quot;Roboto&quot;, sans-serif; white-space: pre;" font-size="20px" font-family="'Roboto', sans-serif"><tspan x="16.83" y="34" dominant-baseline="ideographic">ESP32</tspan></text></g></g></g><g id="g-root-tx_sensorno_1hholuau7ly-fill" data-item-order="2000000000" transform="translate(158, 188)"><g id="tx_sensorno_1hholuau7ly-fill" stroke="none" fill="#484848"><g><text style="font: 20px &quot;Roboto&quot;, sans-serif; white-space: pre;" font-size="20px" font-family="'Roboto', sans-serif"><tspan x="13.57" y="34" dominant-baseline="ideographic">Sensor Nodes</tspan></text></g></g></g><g id="g-root-cu_18koblxuax2by-fill" data-item-order="2000000000" transform="translate(296, 176)"></g><g id="g-root-cu_zpnsg5uax0qp-fill" data-item-order="2000000000" transform="translate(296, 176)"></g><g id="g-root-cu_me7a2tuax2bn-fill" data-item-order="2000000000" transform="translate(296, 176)"></g><g id="g-root-cu_7q8jpuax1jh-fill" data-item-order="2000000000" transform="translate(296, 176)"></g><g id="g-root-cu_qs5cxxuax2ir-fill" data-item-order="2000000000" transform="translate(614, 194)"></g><g id="g-root-cu_dhbbnpuax0xy-fill" data-item-order="2000000000" transform="translate(614, 194)"></g><g id="g-root-cu_5utaduax2iw-fill" data-item-order="2000000000" transform="translate(614, 194)"></g><g id="g-root-cu_1urru85uawzya-fill" data-item-order="2000000000" transform="translate(614, 194)"></g><g id="g-root-cu_1hgbbutuax1j8-fill" data-item-order="2000000000" transform="translate(614, 194)"></g><g id="g-root-tx_reactjsr_zrj7phuast8h-fill" data-item-order="2000000000" transform="translate(638, 206)"><g id="tx_reactjsr_zrj7phuast8h-fill" stroke="none" fill="#484848"><g><text style="font: 20px &quot;Roboto&quot;, sans-serif; white-space: pre;" font-size="20px" font-family="'Roboto', sans-serif"><tspan x="14.06" y="34" dominant-baseline="ideographic">React.js + Recharts</tspan></text></g></g></g><g id="g-root-tx_datatran_1lr51aduau8zr-fill" data-item-order="2000000000" transform="translate(110, 224)"><g id="tx_datatran_1lr51aduau8zr-fill" stroke="none" fill="#484848"><g><text style="font: 20px &quot;Roboto&quot;, sans-serif; white-space: pre;" font-size="20px" font-family="'Roboto', sans-serif"><tspan x="16.7" y="34" dominant-baseline="ideographic">Data Transmission</tspan></text></g></g></g><g id="g-root-cu_v63ft1uax2pv-fill" data-item-order="2000000000" transform="translate(338, 149)"></g><g id="g-root-tx_fastapi_958o1xuast8i-fill" data-item-order="2000000000" transform="translate(638, 242)"><g id="tx_fastapi_958o1xuast8i-fill" stroke="none" fill="#484848"><g><text style="font: 20px &quot;Roboto&quot;, sans-serif; white-space: pre;" font-size="20px" font-family="'Roboto', sans-serif"><tspan x="17.22" y="34" dominant-baseline="ideographic">FastAPI</tspan></text></g></g></g><g id="g-root-tx_backendp_v4uhmtuau8zs-fill" data-item-order="2000000000" transform="translate(98, 260)"><g id="tx_backendp_v4uhmtuau8zs-fill" stroke="none" fill="#484848"><g><text style="font: 20px &quot;Roboto&quot;, sans-serif; white-space: pre;" font-size="20px" font-family="'Roboto', sans-serif"><tspan x="15.45" y="34" dominant-baseline="ideographic">Backend Processing</tspan></text></g></g></g><g id="g-root-tx_phsensor_1utn9hhuassg7-fill" data-item-order="2000000000" transform="translate(194, 482)"><g id="tx_phsensor_1utn9hhuassg7-fill" stroke="none" fill="#484848"><g><text style="font: 20px &quot;Roboto&quot;, sans-serif; white-space: pre;" font-size="20px" font-family="'Roboto', sans-serif"><tspan x="11.75" y="34" dominant-baseline="ideographic">pH Sensor</tspan></text></g></g></g><g id="g-root-tx_postgres_1lpw345uau6tn-fill" data-item-order="2000000000" transform="translate(638, 278)"><g id="tx_postgres_1lpw345uau6tn-fill" stroke="none" fill="#484848"><g><text style="font: 20px &quot;Roboto&quot;, sans-serif; white-space: pre;" font-size="20px" font-family="'Roboto', sans-serif"><tspan x="17.2" y="34" dominant-baseline="ideographic">PostgreSQL</tspan></text></g></g></g><g id="g-root-tx_anomalyd_de6y85uau875-fill" data-item-order="2000000000" transform="translate(110, 296)"><g id="tx_anomalyd_de6y85uau875-fill" stroke="none" fill="#484848"><g><text style="font: 20px &quot;Roboto&quot;, sans-serif; white-space: pre;" font-size="20px" font-family="'Roboto', sans-serif"><tspan x="15.78" y="34" dominant-baseline="ideographic">Anomaly Detection</tspan></text></g></g></g><g id="g-root-tx_frontend_1q8tyo5uau77u-fill" data-item-order="2000000000" transform="translate(98, 332)"><g id="tx_frontend_1q8tyo5uau77u-fill" stroke="none" fill="#484848"><g><text style="font: 20px &quot;Roboto&quot;, sans-serif; white-space: pre;" font-size="20px" font-family="'Roboto', sans-serif"><tspan x="15.48" y="34" dominant-baseline="ideographic">Frontend Dashboard</tspan></text></g></g></g><g id="g-root-tx_mqtt_v3ljgluau6to-fill" data-item-order="2000000000" transform="translate(638, 314)"><g id="tx_mqtt_v3ljgluau6to-fill" stroke="none" fill="#484848"><g><text style="font: 20px &quot;Roboto&quot;, sans-serif; white-space: pre;" font-size="20px" font-family="'Roboto', sans-serif"><tspan x="12.59" y="34" dominant-baseline="ideographic">MQTT</tspan></text></g></g></g><g id="g-root-tx_alertsno_18hjy6duau9kz-fill" data-item-order="2000000000" transform="translate(86, 368)"><g id="tx_alertsno_18hjy6duau9kz-fill" stroke="none" fill="#484848"><g><text style="font: 20px &quot;Roboto&quot;, sans-serif; white-space: pre;" font-size="20px" font-family="'Roboto', sans-serif"><tspan x="17.64" y="34" dominant-baseline="ideographic">Alerts &amp; Notifications</tspan></text></g></g></g><g id="g-root-cu_1cxdgatuax0cl-fill" data-item-order="2000000000" transform="translate(338, 369)"></g><g id="g-root-cu_1hckhc5uax2q2-fill" data-item-order="2000000000" transform="translate(542, 369)"></g><g id="g-root-tx_dockeraw_hs5139uau8el-fill" data-item-order="2000000000" transform="translate(638, 350)"><g id="tx_dockeraw_hs5139uau8el-fill" stroke="none" fill="#484848"><g><text style="font: 20px &quot;Roboto&quot;, sans-serif; white-space: pre;" font-size="20px" font-family="'Roboto', sans-serif"><tspan x="13.2" y="34" dominant-baseline="ideographic">Docker + AWS</tspan></text></g></g></g><g id="g-root-tx_raspberr_dj6qx1uastfy-fill" data-item-order="2000000000" transform="translate(638, 500)"><g id="tx_raspberr_dj6qx1uastfy-fill" stroke="none" fill="#484848"><g><text style="font: 20px &quot;Roboto&quot;, sans-serif; white-space: pre;" font-size="20px" font-family="'Roboto', sans-serif"><tspan x="13.88" y="34" dominant-baseline="ideographic">Raspberry Pi</tspan></text></g></g></g><g id="g-root-tx_temperat_1hi6r45uasu14-fill" data-item-order="2000000000" transform="translate(98, 518)"><g id="tx_temperat_1hi6r45uasu14-fill" stroke="none" fill="#484848"><g><text style="font: 20px &quot;Roboto&quot;, sans-serif; white-space: pre;" font-size="20px" font-family="'Roboto', sans-serif"><tspan x="16.01" y="34" dominant-baseline="ideographic">Temperature Sensor</tspan></text></g></g></g><g id="g-root-tx_iotbased_i0977puax24g-fill" data-item-order="2000000000" transform="translate(170, 38)"><g id="tx_iotbased_i0977puax24g-fill" stroke="none" fill="#484848"><g><text style="font: 25px &quot;Roboto&quot;, sans-serif; white-space: pre;" font-size="25px" font-family="'Roboto', sans-serif"><tspan x="16.1" y="43.5" dominant-baseline="ideographic">IoT-Based Water Quality Monitoring System</tspan></text></g></g></g><g id="g-root-cu_hv9eituax155-fill" data-item-order="2000000000" transform="translate(614, 452)"></g><g id="g-root-cu_4jsw5huax2q4-fill" data-item-order="2000000000" transform="translate(614, 452)"></g><g id="g-root-cu_1qa2wuduax0y6-fill" data-item-order="2000000000" transform="translate(296, 470)"></g><g id="g-root-cu_18jfdfpuax05l-fill" data-item-order="2000000000" transform="translate(296, 470)"></g><g id="g-root-ic_stac_1lrsqmdu13217-fill" data-item-order="3000000000" transform="translate(602, 152)"></g><g id="g-root-tx_software_dcz8atu1328a-fill" data-item-order="3000000000" transform="translate(638, 155)"><g id="tx_software_dcz8atu1328a-fill" stroke="none" fill="#46432d"><g><text style="font: 20px &quot;Roboto&quot;, sans-serif; white-space: pre;" font-size="20px" font-family="'Roboto', sans-serif"><tspan x="14.61" y="34" dominant-baseline="ideographic">Software Stack</tspan></text></g></g></g><g id="g-root-tx_iotbased_1cvj9adu0ytc8-fill" data-item-order="3000000000" transform="translate(410, 272)"><g id="tx_iotbased_1cvj9adu0ytc8-fill" stroke="none" fill="#484848"><g><text style="font: 20px &quot;Roboto&quot;, sans-serif; white-space: pre;" font-size="20px" font-family="'Roboto', sans-serif"><tspan x="17.72" y="34" dominant-baseline="ideographic">IoT-Based </tspan><tspan x="35.4" y="58" dominant-baseline="ideographic">Water </tspan><tspan x="30.8" y="82" dominant-baseline="ideographic">Quality </tspan><tspan x="13.28" y="106" dominant-baseline="ideographic">Monitoring </tspan><tspan x="28.33" y="130" dominant-baseline="ideographic">System</tspan></text></g></g></g><g id="g-root-ic_data_8xqz0luax2x4-fill" data-item-order="3000000000" transform="translate(296, 134)"></g><g id="g-root-tx_dataflow_zk1io5uax2x3-fill" data-item-order="3000000000" transform="translate(26, 137)"><g id="tx_dataflow_zk1io5uax2x3-fill" stroke="none" fill="#573e4d"><g><text style="font: 20px &quot;Roboto&quot;, sans-serif; white-space: pre;" font-size="20px" font-family="'Roboto', sans-serif"><tspan x="15.61" y="34" dominant-baseline="ideographic">Data Flow &amp; Communication</tspan></text></g></g></g><g id="g-root-ic_prin_zqxyv9u0ytc7-fill" data-item-order="3000000000" transform="translate(602, 410)"></g><g id="g-root-tx_waterqua_vb38hxuavnyh-fill" data-item-order="3000000000" transform="translate(86, 431)"><g id="tx_waterqua_vb38hxuavnyh-fill" stroke="none" fill="#424736"><g><text style="font: 20px &quot;Roboto&quot;, sans-serif; white-space: pre;" font-size="20px" font-family="'Roboto', sans-serif"><tspan x="14.02" y="34" dominant-baseline="ideographic">Water Quality Sensors</tspan></text></g></g></g><g id="g-root-ic_buoy_dkfp39uavn5u-fill" data-item-order="3000000000" transform="translate(296, 428)"></g><g id="g-root-tx_iotdevic_1qd8iitu0ytc6-fill" data-item-order="3000000000" transform="translate(638, 413)"><g id="tx_iotdevic_1qd8iitu0ytc6-fill" stroke="none" fill="#374840"><g><text style="font: 20px &quot;Roboto&quot;, sans-serif; white-space: pre;" font-size="20px" font-family="'Roboto', sans-serif"><tspan x="12.36" y="34" dominant-baseline="ideographic">IoT Devices</tspan></text></g></g></g><g id="g-root-ro_1cws7glu0yvia-stroke" data-item-order="1999965368" transform="translate(386, 221)"><g id="ro_1cws7glu0yvia-stroke" fill="none" stroke-linecap="round" stroke-linejoin="round" stroke-miterlimit="4" stroke="#484848" stroke-width="2"><g><path d="M 34 10L 142 10C 142 10 166 10 166 34L 166 208C 166 208 166 232 142 232L 34 232C 34 232 10 232 10 208L 10 34C 10 34 10 10 34 10"></path></g></g></g><g id="g-root-ro_1uo0zphuax155-stroke" data-item-order="1999982504" transform="translate(14, 122)"><g id="ro_1uo0zphuax155-stroke" fill="none" stroke-linecap="round" stroke-linejoin="round" stroke-miterlimit="4" stroke="#484848" stroke-width="2"><g><path d="M 22 10L 322 10C 322 10 334 10 334 22L 334 52C 334 52 334 64 322 64L 22 64C 22 64 10 64 10 52L 10 22C 10 22 10 10 22 10"></path></g></g></g><g id="g-root-ro_1qf2pj9uavm6j-stroke" data-item-order="1999985744" transform="translate(74, 416)"><g id="ro_1qf2pj9uavm6j-stroke" fill="none" stroke-linecap="round" stroke-linejoin="round" stroke-miterlimit="4" stroke="#484848" stroke-width="2"><g><path d="M 22 10L 262 10C 262 10 274 10 274 22L 274 52C 274 52 274 64 262 64L 22 64C 22 64 10 64 10 52L 10 22C 10 22 10 10 22 10"></path></g></g></g><g id="g-root-ro_18gc891u133m4-stroke" data-item-order="1999988984" transform="translate(590, 140)"><g id="ro_18gc891u133m4-stroke" fill="none" stroke-linecap="round" stroke-linejoin="round" stroke-miterlimit="4" stroke="#484848" stroke-width="2"><g><path d="M 22 10L 202 10C 202 10 214 10 214 22L 214 52C 214 52 214 64 202 64L 22 64C 22 64 10 64 10 52L 10 22C 10 22 10 10 22 10"></path></g></g></g><g id="g-root-ro_94nf7pu0ytc8-stroke" data-item-order="1999990928" transform="translate(590, 398)"><g id="ro_94nf7pu0ytc8-stroke" fill="none" stroke-linecap="round" stroke-linejoin="round" stroke-miterlimit="4" stroke="#484848" stroke-width="2"><g><path d="M 22 10L 166 10C 166 10 178 10 178 22L 178 52C 178 52 178 64 166 64L 22 64C 22 64 10 64 10 52L 10 22C 10 22 10 10 22 10"></path></g></g></g><g id="g-root-cu_1ut0seduax24n-stroke" data-item-order="2000000000" transform="translate(296, 176)"><g id="cu_1ut0seduax24n-stroke" fill="none" stroke-linecap="round" stroke-linejoin="round" stroke-miterlimit="4" stroke="#a3a3a3" stroke-width="2" stroke-dasharray="5.0, 7.0"><g><path d="M 28 10L 28 94L 28 178L 19 178L 10 178"></path></g></g></g><g id="g-root-cu_1hi6r45uax0jt-stroke" data-item-order="2000000000" transform="translate(296, 176)"><g id="cu_1hi6r45uax0jt-stroke" fill="none" stroke-linecap="round" stroke-linejoin="round" stroke-miterlimit="4" stroke="#a3a3a3" stroke-width="2" stroke-dasharray="5.0, 7.0"><g><path d="M 28 10L 28 35.5L 28 202C 28.000013 208.62743 22.62743 214.000014 16.000013 214.000014L 15.9 214L 10 214"></path></g></g></g><g id="g-root-cu_18hjy6duax14w-stroke" data-item-order="2000000000" transform="translate(542, 167)"><g id="cu_18hjy6duax14w-stroke" fill="none" stroke-linecap="round" stroke-linejoin="round" stroke-miterlimit="4" stroke="#a3a3a3" stroke-width="2" stroke-dasharray="5.0, 7.0"><g><path d="M 10 138L 13 138L 13.1 138C 24.642748 138.000008 33.999998 128.642758 33.999998 117.100006L 34 117L 34 30.9C 33.999999 19.357249 43.357248 10.000001 54.899999 10.000002L 55 10L 58 10"></path></g></g></g><g id="g-root-tx_esp32_145hakluastfx-stroke" data-item-order="2000000000" transform="translate(638, 464)"></g><g id="g-root-tx_sensorno_1hholuau7ly-stroke" data-item-order="2000000000" transform="translate(158, 188)"></g><g id="g-root-cu_18koblxuax2by-stroke" data-item-order="2000000000" transform="translate(296, 176)"><g id="cu_18koblxuax2by-stroke" fill="none" stroke-linecap="round" stroke-linejoin="round" stroke-miterlimit="4" stroke="#a3a3a3" stroke-width="2" stroke-dasharray="5.0, 7.0"><g><path d="M 28 10L 28 22L 28 34L 19 34L 10 34"></path></g></g></g><g id="g-root-cu_zpnsg5uax0qp-stroke" data-item-order="2000000000" transform="translate(296, 176)"><g id="cu_zpnsg5uax0qp-stroke" fill="none" stroke-linecap="round" stroke-linejoin="round" stroke-miterlimit="4" stroke="#a3a3a3" stroke-width="2" stroke-dasharray="5.0, 7.0"><g><path d="M 28 10L 28 40L 28 70L 19 70L 10 70"></path></g></g></g><g id="g-root-cu_me7a2tuax2bn-stroke" data-item-order="2000000000" transform="translate(296, 176)"><g id="cu_me7a2tuax2bn-stroke" fill="none" stroke-linecap="round" stroke-linejoin="round" stroke-miterlimit="4" stroke="#a3a3a3" stroke-width="2" stroke-dasharray="5.0, 7.0"><g><path d="M 28 10L 28 58L 28 106L 19 106L 10 106"></path></g></g></g><g id="g-root-cu_7q8jpuax1jh-stroke" data-item-order="2000000000" transform="translate(296, 176)"><g id="cu_7q8jpuax1jh-stroke" fill="none" stroke-linecap="round" stroke-linejoin="round" stroke-miterlimit="4" stroke="#a3a3a3" stroke-width="2" stroke-dasharray="5.0, 7.0"><g><path d="M 28 10L 28 76L 28 142L 19 142L 10 142"></path></g></g></g><g id="g-root-cu_qs5cxxuax2ir-stroke" data-item-order="2000000000" transform="translate(614, 194)"><g id="cu_qs5cxxuax2ir-stroke" fill="none" stroke-linecap="round" stroke-linejoin="round" stroke-miterlimit="4" stroke="#a3a3a3" stroke-width="2" stroke-dasharray="5.0, 7.0"><g><path d="M 10 10L 10 22L 10 34L 19 34L 28 34"></path></g></g></g><g id="g-root-cu_dhbbnpuax0xy-stroke" data-item-order="2000000000" transform="translate(614, 194)"><g id="cu_dhbbnpuax0xy-stroke" fill="none" stroke-linecap="round" stroke-linejoin="round" stroke-miterlimit="4" stroke="#a3a3a3" stroke-width="2" stroke-dasharray="5.0, 7.0"><g><path d="M 10 10L 10 40L 10 70L 19 70L 28 70"></path></g></g></g><g id="g-root-cu_5utaduax2iw-stroke" data-item-order="2000000000" transform="translate(614, 194)"><g id="cu_5utaduax2iw-stroke" fill="none" stroke-linecap="round" stroke-linejoin="round" stroke-miterlimit="4" stroke="#a3a3a3" stroke-width="2" stroke-dasharray="5.0, 7.0"><g><path d="M 10 10L 10 58L 10 106L 19 106L 28 106"></path></g></g></g><g id="g-root-cu_1urru85uawzya-stroke" data-item-order="2000000000" transform="translate(614, 194)"><g id="cu_1urru85uawzya-stroke" fill="none" stroke-linecap="round" stroke-linejoin="round" stroke-miterlimit="4" stroke="#a3a3a3" stroke-width="2" stroke-dasharray="5.0, 7.0"><g><path d="M 10 10L 10 76L 10 142L 19 142L 28 142"></path></g></g></g><g id="g-root-cu_1hgbbutuax1j8-stroke" data-item-order="2000000000" transform="translate(614, 194)"><g id="cu_1hgbbutuax1j8-stroke" fill="none" stroke-linecap="round" stroke-linejoin="round" stroke-miterlimit="4" stroke="#a3a3a3" stroke-width="2" stroke-dasharray="5.0, 7.0"><g><path d="M 10 10L 10 31L 10 166C 10 172.627425 15.372584 178.000009 22.000001 178.000008L 22.1 178L 28 178"></path></g></g></g><g id="g-root-tx_reactjsr_zrj7phuast8h-stroke" data-item-order="2000000000" transform="translate(638, 206)"></g><g id="g-root-tx_datatran_1lr51aduau8zr-stroke" data-item-order="2000000000" transform="translate(110, 224)"></g><g id="g-root-cu_v63ft1uax2pv-stroke" data-item-order="2000000000" transform="translate(338, 149)"><g id="cu_v63ft1uax2pv-stroke" fill="none" stroke-linecap="round" stroke-linejoin="round" stroke-miterlimit="4" stroke="#a3a3a3" stroke-width="2" stroke-dasharray="5.0, 7.0"><g><path d="M 58 156L 55 156L 54.9 156C 43.357249 156.000001 34 146.642752 34 135.1L 34 135L 34 30.9C 33.999998 19.357248 24.64275 10 13.1 10L 13 10L 10 10"></path></g></g></g><g id="g-root-tx_fastapi_958o1xuast8i-stroke" data-item-order="2000000000" transform="translate(638, 242)"></g><g id="g-root-tx_backendp_v4uhmtuau8zs-stroke" data-item-order="2000000000" transform="translate(98, 260)"></g><g id="g-root-tx_phsensor_1utn9hhuassg7-stroke" data-item-order="2000000000" transform="translate(194, 482)"></g><g id="g-root-tx_postgres_1lpw345uau6tn-stroke" data-item-order="2000000000" transform="translate(638, 278)"></g><g id="g-root-tx_anomalyd_de6y85uau875-stroke" data-item-order="2000000000" transform="translate(110, 296)"></g><g id="g-root-tx_frontend_1q8tyo5uau77u-stroke" data-item-order="2000000000" transform="translate(98, 332)"></g><g id="g-root-tx_mqtt_v3ljgluau6to-stroke" data-item-order="2000000000" transform="translate(638, 314)"></g><g id="g-root-tx_alertsno_18hjy6duau9kz-stroke" data-item-order="2000000000" transform="translate(86, 368)"></g><g id="g-root-cu_1cxdgatuax0cl-stroke" data-item-order="2000000000" transform="translate(338, 369)"><g id="cu_1cxdgatuax0cl-stroke" fill="none" stroke-linecap="round" stroke-linejoin="round" stroke-miterlimit="4" stroke="#a3a3a3" stroke-width="2" stroke-dasharray="5.0, 7.0"><g><path d="M 58 10L 55 10L 54.9 10C 43.357248 10.000001 33.999999 19.357249 33.999999 30.9L 34 31L 34 63.1C 34.000003 74.642753 24.642755 84.000002 13.100003 84.000003L 13 84L 10 84"></path></g></g></g><g id="g-root-cu_1hckhc5uax2q2-stroke" data-item-order="2000000000" transform="translate(542, 369)"><g id="cu_1hckhc5uax2q2-stroke" fill="none" stroke-linecap="round" stroke-linejoin="round" stroke-miterlimit="4" stroke="#a3a3a3" stroke-width="2" stroke-dasharray="5.0, 7.0"><g><path d="M 10 10L 13 10L 13.1 10C 24.64275 10 33.999998 19.357248 33.999998 30.899998L 34 31L 34 45.1C 33.999999 56.642748 43.357246 65.999995 54.899997 65.999996L 55 66L 58 66"></path></g></g></g><g id="g-root-tx_dockeraw_hs5139uau8el-stroke" data-item-order="2000000000" transform="translate(638, 350)"></g><g id="g-root-tx_raspberr_dj6qx1uastfy-stroke" data-item-order="2000000000" transform="translate(638, 500)"></g><g id="g-root-tx_temperat_1hi6r45uasu14-stroke" data-item-order="2000000000" transform="translate(98, 518)"></g><g id="g-root-tx_iotbased_i0977puax24g-stroke" data-item-order="2000000000" transform="translate(170, 38)"></g><g id="g-root-cu_hv9eituax155-stroke" data-item-order="2000000000" transform="translate(614, 452)"><g id="cu_hv9eituax155-stroke" fill="none" stroke-linecap="round" stroke-linejoin="round" stroke-miterlimit="4" stroke="#a3a3a3" stroke-width="2" stroke-dasharray="5.0, 7.0"><g><path d="M 10 10L 10 22L 10 34L 19 34L 28 34"></path></g></g></g><g id="g-root-cu_4jsw5huax2q4-stroke" data-item-order="2000000000" transform="translate(614, 452)"><g id="cu_4jsw5huax2q4-stroke" fill="none" stroke-linecap="round" stroke-linejoin="round" stroke-miterlimit="4" stroke="#a3a3a3" stroke-width="2" stroke-dasharray="5.0, 7.0"><g><path d="M 10 10L 10 17.5L 10 58C 10.000002 64.627417 15.372585 70 22.000002 69.999999L 22.1 70L 28 70"></path></g></g></g><g id="g-root-cu_1qa2wuduax0y6-stroke" data-item-order="2000000000" transform="translate(296, 470)"><g id="cu_1qa2wuduax0y6-stroke" fill="none" stroke-linecap="round" stroke-linejoin="round" stroke-miterlimit="4" stroke="#a3a3a3" stroke-width="2" stroke-dasharray="5.0, 7.0"><g><path d="M 28 10L 28 22L 28 34L 19 34L 10 34"></path></g></g></g><g id="g-root-cu_18jfdfpuax05l-stroke" data-item-order="2000000000" transform="translate(296, 470)"><g id="cu_18jfdfpuax05l-stroke" fill="none" stroke-linecap="round" stroke-linejoin="round" stroke-miterlimit="4" stroke="#a3a3a3" stroke-width="2" stroke-dasharray="5.0, 7.0"><g><path d="M 28 10L 28 17.5L 28 58C 27.999999 64.627415 22.627416 69.999998 16 69.999998L 15.9 70L 10 70"></path></g></g></g><g id="g-root-ic_stac_1lrsqmdu13217-stroke" data-item-order="3000000000" transform="translate(602, 152)"><g id="ic_stac_1lrsqmdu13217-stroke" fill="none" stroke-linecap="round" stroke-linejoin="round" stroke-miterlimit="4" stroke="#46432d" stroke-width="2"><g><path d="M 11.93125 20.42625L 30.227499 20.42625C 30.227499 20.42625 31.533749 20.42625 31.533749 21.7325L 31.533749 36.108749C 31.533749 36.108749 31.533749 37.415001 30.227499 37.415001L 11.93125 37.415001C 11.93125 37.415001 10.625 37.415001 10.625 36.108749L 10.625 21.7325C 10.625 21.7325 10.625 20.42625 11.93125 20.42625M 10.625 24.387501L 31.533749 24.387501M 10.625 32.970001L 31.533749 32.970001M 10.625 28.79125L 31.533749 28.79125M 20.42625 24.387501L 20.42625 37.415001M 25.98 24.387501L 25.98 37.415001M 15.8525 16.5L 34.147499 16.5C 34.49514 16.499998 34.828465 16.638437 35.073814 16.884724C 35.31916 17.13101 35.456329 17.464863 35.455002 17.8125L 35.455002 34.80125M 19.772499 12.585L 38.068748 12.585C 38.790661 12.584999 39.37569 13.170589 39.374996 13.8925L 39.375 30.875"></path></g></g></g><g id="g-root-tx_software_dcz8atu1328a-stroke" data-item-order="3000000000" transform="translate(638, 155)"></g><g id="g-root-tx_iotbased_1cvj9adu0ytc8-stroke" data-item-order="3000000000" transform="translate(410, 272)"></g><g id="g-root-ic_data_8xqz0luax2x4-stroke" data-item-order="3000000000" transform="translate(296, 134)"><g id="ic_data_8xqz0luax2x4-stroke" fill="none" stroke-linecap="round" stroke-linejoin="round" stroke-miterlimit="4" stroke="#573e4d" stroke-width="2"><g><path d="M 33.125 35.3125L 10.625 35.3125L 16.875 14.6875L 39.375 14.6875L 33.125 35.3125Z"></path></g></g></g><g id="g-root-tx_dataflow_zk1io5uax2x3-stroke" data-item-order="3000000000" transform="translate(26, 137)"></g><g id="g-root-ic_prin_zqxyv9u0ytc7-stroke" data-item-order="3000000000" transform="translate(602, 410)"><g id="ic_prin_zqxyv9u0ytc7-stroke" fill="none" stroke-linecap="round" stroke-linejoin="round" stroke-miterlimit="4" stroke="#374840" stroke-width="2"><g><path d="M 16.875 35.3125L 13.125 35.3125C 11.745997 35.308384 10.629119 34.191505 10.625 32.8125L 10.625 26.875C 10.628435 25.495716 11.745714 24.378437 13.125 24.375002L 32.1875 24.375C 33.566788 24.378437 34.684067 25.495716 34.687504 26.875002L 34.6875 32.8125C 34.683384 34.191505 33.566505 35.308384 32.1875 35.3125L 28.4375 35.3125M 16.875 21.875L 16.875 16.875L 24.17 16.875C 24.501493 16.875071 24.819384 17.006813 25.053751 17.241251L 28.071249 20.258749C 28.305687 20.493116 28.437429 20.811007 28.4375 21.1425L 28.4375 21.875M 28.4375 38.125C 28.4375 38.815353 27.877857 39.375 27.1875 39.375L 18.125 39.375C 17.434645 39.375 16.875 38.815353 16.875 38.125L 16.875 31.5625L 28.4375 31.5625ZM 13.75 28.125C 13.75 28.470177 14.029822 28.75 14.375 28.75C 14.720178 28.75 15 28.470177 15 28.125C 15 27.779823 14.720178 27.5 14.375 27.5C 14.029822 27.5 13.75 27.779823 13.75 28.125M 32.125 19.7325C 32.09687 18.721966 31.284286 17.909382 30.27375 17.88125M 35.75 19.803749C 35.665604 16.774214 33.229534 14.338142 30.200001 14.25375M 35.75 19.803749C 35.665604 16.774214 33.229534 14.338142 30.200001 14.25375M 39.375 19.875C 39.233105 14.826309 35.173691 10.766895 30.125 10.625M 39.375 19.875C 39.233105 14.826309 35.173691 10.766895 30.125 10.625"></path></g></g></g><g id="g-root-tx_waterqua_vb38hxuavnyh-stroke" data-item-order="3000000000" transform="translate(86, 431)"></g><g id="g-root-ic_buoy_dkfp39uavn5u-stroke" data-item-order="3000000000" transform="translate(296, 428)"><g id="ic_buoy_dkfp39uavn5u-stroke" fill="none" stroke-linecap="round" stroke-linejoin="round" stroke-miterlimit="4" stroke="#424736" stroke-width="2"><g><path d="M 39.361252 37.466248C 36.298748 38.1175 33.744999 34.94125 33.744999 34.94125C 32.791813 36.448883 31.152809 37.385452 29.370001 37.44125C 27.573812 37.434109 25.913065 36.485107 24.995001 34.94125C 24.076395 36.484558 22.415989 37.433361 20.619999 37.44125C 18.837193 37.385452 17.198189 36.448883 16.245001 34.94125C 16.244999 34.94125 13.68375 38.092503 10.62 37.44125M 18.716249 29.58C 17.71035 29.112312 16.855875 28.371738 16.25 27.442501C 16.25 27.442501 13.69625 30.625 10.63375 29.967501M 39.375 29.91625C 36.25 30.567501 34.30125 27.442501 34.30125 27.442501L 34.30125 27.442501C 33.352142 28.946602 31.736601 29.901407 29.961248 30.007498M 24.37125 12.44625L 24.37125 27.442501M 24.37125 14.945L 30.620001 14.945M 24.37125 18.695L 30.620001 18.695M 24.37125 22.44375L 30.620001 22.44375M 21.87125 29.942501C 21.87125 31.323212 22.990538 32.442501 24.37125 32.442501C 25.751961 32.442501 26.87125 31.323212 26.87125 29.942501C 26.87125 28.561787 25.751961 27.442501 24.37125 27.442501C 22.990538 27.442501 21.87125 28.561787 21.87125 29.942501Z"></path></g></g></g><g id="g-root-tx_iotdevic_1qd8iitu0ytc6-stroke" data-item-order="3000000000" transform="translate(638, 413)"></g></g></g></svg>