<?xml version="1.0" encoding="utf-8" standalone="yes"?>
<!DOCTYPE svg PUBLIC "-//W3C//DTD SVG 1.1//EN" "http://www.w3.org/Graphics/SVG/1.1/DTD/svg11.dtd">
<svg width="1500" height="468" viewBox="0 0 1500 468" style="fill:none;stroke:none;fill-rule:evenodd;clip-rule:evenodd;stroke-linecap:round;stroke-linejoin:round;stroke-miterlimit:1.5;" version="1.1" xmlns="http://www.w3.org/2000/svg" xmlns:xlink="http://www.w3.org/1999/xlink"><style class="text-font-style fontImports" data-font-family="Roboto">@import url('https://fonts.googleapis.com/css2?family=Roboto:wght@400;700&amp;display=block');</style><g id="items" style="isolation: isolate"><g id="blend" style="mix-blend-mode: normal"><g id="g-root-cp_1_g-1_1_8xrob8uaolc2-fill" data-item-order="-540090" transform="translate(170, 86)"><g id="cp_1_g-1_1_8xrob8uaolc2-fill" stroke="none" fill="#e0cb15"><g><path d="M 22 22L 10 22C 10 15.3957 15.3957 10 22 10L 22 22ZM 22 10L 22 22L 190 22L 190 10L 22 10ZM 202 22L 190 22L 190 10C 196.6158 10 202 15.3842 202 22ZM 202 130L 10 130L 10 22L 202 22L 202 130Z"></path></g></g></g><g id="g-root-cp_0_g-0_1_1lrs7o4uaonik-fill" data-item-order="-540062" transform="translate(170, 206)"><g id="cp_0_g-0_1_1lrs7o4uaonik-fill" stroke="none" fill="#666666"><g><path d="M 10 190L 22 190L 22 202C 15.3726 202 10 196.6274 10 190ZM 190 202L 190 190L 22 190L 22 202L 190 202ZM 202 190C 202 196.6274 196.6274 202 190 202L 190 190L 202 190ZM 202 10L 10 10L 10 190L 202 190L 202 10Z"></path></g></g></g><g id="g-root-cp_1-1_cell-1-1_1414o9guaompy-fill" data-item-order="-540041" transform="translate(182, 218)"></g><g id="g-root-cp_2-1_cell-2-1_qqamz8uaol54-fill" data-item-order="-540023" transform="translate(182, 278)"></g><g id="g-root-cp_3-1_cell-3-1_403bouaol56-fill" data-item-order="-540005" transform="translate(182, 338)"></g><g id="g-root-cp_1_g-1_2_1hdu4t0uaonb8-fill" data-item-order="-539986" transform="translate(386, 86)"><g id="cp_1_g-1_2_1hdu4t0uaonb8-fill" stroke="none" fill="#de8431"><g><path d="M 22 22L 10 22C 10 15.3957 15.3957 10 22 10L 22 22ZM 22 10L 22 22L 190 22L 190 10L 22 10ZM 202 22L 190 22L 190 10C 196.6158 10 202 15.3842 202 22ZM 202 130L 10 130L 10 22L 202 22L 202 130Z"></path></g></g></g><g id="g-root-cp_0_g-0_2_v7d39wuaomj2-fill" data-item-order="-539958" transform="translate(386, 206)"><g id="cp_0_g-0_2_v7d39wuaomj2-fill" stroke="none" fill="#666666"><g><path d="M 10 190L 22 190L 22 202C 15.3726 202 10 196.6274 10 190ZM 190 202L 190 190L 22 190L 22 202L 190 202ZM 202 190C 202 196.6274 196.6274 202 190 202L 190 190L 202 190ZM 202 10L 10 10L 10 190L 202 190L 202 10Z"></path></g></g></g><g id="g-root-cp_1-2_cell-1-2_dgpjv8uaolqg-fill" data-item-order="-539937" transform="translate(398, 218)"></g><g id="g-root-cp_2-2_cell-2-2_591hwuaonbe-fill" data-item-order="-539919" transform="translate(398, 278)"></g><g id="g-root-cp_3-2_cell-3-2_1lvj26suaoljg-fill" data-item-order="-539901" transform="translate(398, 338)"></g><g id="g-root-cp_1_g-1_3_144vis4uaokqu-fill" data-item-order="-539882" transform="translate(602, 86)"><g id="cp_1_g-1_3_144vis4uaokqu-fill" stroke="none" fill="#e55753"><g><path d="M 22 22L 10 22C 10 15.3957 15.3957 10 22 10L 22 22ZM 22 10L 22 22L 190 22L 190 10L 22 10ZM 202 22L 190 22L 190 10C 196.6158 10 202 15.3842 202 22ZM 202 130L 10 130L 10 22L 202 22L 202 130Z"></path></g></g></g><g id="g-root-cp_0_g-0_3_dikz4kuaokqw-fill" data-item-order="-539854" transform="translate(602, 206)"><g id="cp_0_g-0_3_dikz4kuaokqw-fill" stroke="none" fill="#666666"><g><path d="M 10 190L 22 190L 22 202C 15.3726 202 10 196.6274 10 190ZM 190 202L 190 190L 22 190L 22 202L 190 202ZM 202 190C 202 196.6274 196.6274 202 190 202L 190 190L 202 190ZM 202 10L 10 10L 10 190L 202 190L 202 10Z"></path></g></g></g><g id="g-root-cp_1-3_cell-1-3_1usf0lwuaomwy-fill" data-item-order="-539833" transform="translate(614, 218)"></g><g id="g-root-cp_2-3_cell-2-3_vb3xskuaokjw-fill" data-item-order="-539815" transform="translate(614, 278)"></g><g id="g-root-cp_3-3_cell-3-3_qvafo4uaolc6-fill" data-item-order="-539797" transform="translate(614, 338)"></g><g id="g-root-cp_1_g-1_4_8zw0kuaolc8-fill" data-item-order="-539778" transform="translate(818, 86)"><g id="cp_1_g-1_4_8zw0kuaolc8-fill" stroke="none" fill="#de58a9"><g><path d="M 22 22L 10 22C 10 15.3957 15.3957 10 22 10L 22 22ZM 22 10L 22 22L 190 22L 190 10L 22 10ZM 202 22L 190 22L 190 10C 196.6158 10 202 15.3842 202 22ZM 202 130L 10 130L 10 22L 202 22L 202 130Z"></path></g></g></g><g id="g-root-cp_0_g-0_4_1hitxhwuaonia-fill" data-item-order="-539750" transform="translate(818, 206)"><g id="cp_0_g-0_4_1hitxhwuaonia-fill" stroke="none" fill="#666666"><g><path d="M 10 190L 22 190L 22 202C 15.3726 202 10 196.6274 10 190ZM 190 202L 190 190L 22 190L 22 202L 190 202ZM 202 190C 202 196.6274 196.6274 202 190 202L 190 190L 202 190ZM 202 10L 10 10L 10 190L 202 190L 202 10Z"></path></g></g></g><g id="g-root-cp_1-4_cell-1-4_vccvysuaomq4-fill" data-item-order="-539729" transform="translate(830, 218)"></g><g id="g-root-cp_2-4_cell-2-4_dbpr6cuaq0hy-fill" data-item-order="-539711" transform="translate(830, 278)"></g><g id="g-root-cp_3-4_cell-3-4_8vw91wuaq1a8-fill" data-item-order="-539693" transform="translate(830, 338)"></g><g id="g-root-cp_1_g-1_5_1lqj9hwuaq0ay-fill" data-item-order="-539674" transform="translate(1034, 86)"><g id="cp_1_g-1_5_1lqj9hwuaq0ay-fill" stroke="none" fill="#ba5de5"><g><path d="M 22 22L 10 22C 10 15.3957 15.3957 10 22 10L 22 22ZM 22 10L 22 22L 190 22L 190 10L 22 10ZM 202 22L 190 22L 190 10C 196.6158 10 202 15.3842 202 22ZM 202 130L 10 130L 10 22L 202 22L 202 130Z"></path></g></g></g><g id="g-root-cp_0_g-0_5_v48pucuaq0b0-fill" data-item-order="-539646" transform="translate(1034, 206)"><g id="cp_0_g-0_5_v48pucuaq0b0-fill" stroke="none" fill="#666666"><g><path d="M 10 190L 22 190L 22 202C 15.3726 202 10 196.6274 10 190ZM 190 202L 190 190L 22 190L 22 202L 190 202ZM 202 190C 202 196.6274 196.6274 202 190 202L 190 190L 202 190ZM 202 10L 10 10L 10 190L 202 190L 202 10Z"></path></g></g></g><g id="g-root-cp_1-5_cell-1-5_ddl6fouapzie-fill" data-item-order="-539625" transform="translate(1046, 218)"></g><g id="g-root-cp_2-5_cell-2-5_1unf7x0uaq1og-fill" data-item-order="-539607" transform="translate(1046, 278)"></g><g id="g-root-cp_3-5_cell-3-5_1hcl6msuaq03m-fill" data-item-order="-539589" transform="translate(1046, 338)"></g><g id="g-root-cp_1_g-1_6_1414o9guaq1ok-fill" data-item-order="-539570" transform="translate(1250, 86)"><g id="cp_1_g-1_6_1414o9guaq1ok-fill" stroke="none" fill="#7f64ea"><g><path d="M 22 22L 10 22C 10 15.3957 15.3957 10 22 10L 22 22ZM 22 10L 22 22L 190 22L 190 10L 22 10ZM 202 22L 190 22L 190 10C 196.6158 10 202 15.3842 202 22ZM 202 130L 10 130L 10 22L 202 22L 202 130Z"></path></g></g></g><g id="g-root-cp_0_g-0_6_hunmqcuaq0we-fill" data-item-order="-539540" transform="translate(1250, 206)"><g id="cp_0_g-0_6_hunmqcuaq0we-fill" stroke="none" fill="#666666"><g><path d="M 10 190L 22 190L 22 202C 15.3726 202 10 196.6274 10 190ZM 190 202L 190 190L 22 190L 22 202L 190 202ZM 202 190C 202 196.6274 196.6274 202 190 202L 190 190L 202 190ZM 202 10L 10 10L 10 190L 202 190L 202 10Z"></path></g></g></g><g id="g-root-cp_1-6_cell-1-6_403bouaq03s-fill" data-item-order="-539519" transform="translate(1262, 218)"></g><g id="g-root-cp_2-6_cell-2-6_1heglw4uapz42-fill" data-item-order="-539501" transform="translate(1262, 278)"></g><g id="g-root-cp_3-6_cell-3-6_v7d39wuaq1ho-fill" data-item-order="-539483" transform="translate(1262, 338)"></g><g id="g-root-tx_frontend_1qaq384uavlz9-fill" data-item-order="0" transform="translate(626, 230)"><g id="tx_frontend_1qaq384uavlz9-fill" stroke="none" fill="#ffffff"><g><text style="font: 15px &quot;Roboto&quot;, sans-serif; white-space: pre;" font-size="15px" font-family="'Roboto', sans-serif"><tspan x="14.81" y="31" dominant-baseline="ideographic">Frontend dashboard</tspan></text></g></g></g><g id="g-root-tx_backendp_4gp80kuayhad-fill" data-item-order="0" transform="translate(842, 230)"><g id="tx_backendp_4gp80kuayhad-fill" stroke="none" fill="#ffffff"><g><text style="font: 15px &quot;Roboto&quot;, sans-serif; white-space: pre;" font-size="15px" font-family="'Roboto', sans-serif"><tspan x="14.61" y="31" dominant-baseline="ideographic">Backend processing</tspan></text></g></g></g><g id="g-root-tx_edgecomp_1uqjlckuau7t1-fill" data-item-order="0" transform="translate(422, 230)"><g id="tx_edgecomp_1uqjlckuau7t1-fill" stroke="none" fill="#ffffff"><g><text style="font: 15px &quot;Roboto&quot;, sans-serif; white-space: pre;" font-size="15px" font-family="'Roboto', sans-serif"><tspan x="15.79" y="31" dominant-baseline="ideographic">Edge computing</tspan></text></g></g></g><g id="g-root-tx_sensorno_3dm8kuasutp-fill" data-item-order="0" transform="translate(218, 230)"><g id="tx_sensorno_3dm8kuasutp-fill" stroke="none" fill="#ffffff"><g><text style="font: 15px &quot;Roboto&quot;, sans-serif; white-space: pre;" font-size="15px" font-family="'Roboto', sans-serif"><tspan x="12.38" y="31" dominant-baseline="ideographic">Sensor nodes</tspan></text></g></g></g><g id="g-root-tx_structur_8zn3kkuazv2d-fill" data-item-order="0" transform="translate(1076, 230)"><g id="tx_structur_8zn3kkuazv2d-fill" stroke="none" fill="#ffffff"><g><text style="font: 15px &quot;Roboto&quot;, sans-serif; white-space: pre;" font-size="15px" font-family="'Roboto', sans-serif"><tspan x="12.53" y="31" dominant-baseline="ideographic">Structured data</tspan></text></g></g></g><g id="g-root-tx_purpose_dgpjv8uaq0p2-fill" data-item-order="0" transform="translate(50, 230)"><g id="tx_purpose_dgpjv8uaq0p2-fill" stroke="none" fill="#484848"><g><text style="font: bold 20px &quot;Roboto&quot;, sans-serif; white-space: pre;" font-weight="bold" font-size="20px" font-family="'Roboto', sans-serif"><tspan x="17" y="34" dominant-baseline="ideographic">Purpose</tspan></text></g></g></g><g id="g-root-tx_mqtt_dgpjv8ub41e2-fill" data-item-order="0" transform="translate(1316, 170)"><g id="tx_mqtt_dgpjv8ub41e2-fill" stroke="none" fill="#ffffff"><g><text style="font: bold 20px &quot;Roboto&quot;, sans-serif; white-space: pre;" font-weight="bold" font-size="20px" font-family="'Roboto', sans-serif"><tspan x="12.05" y="34" dominant-baseline="ideographic">MQTT</tspan></text></g></g></g><g id="g-root-tx_iotcommu_4mxyvoub4171-fill" data-item-order="0" transform="translate(1274, 350)"><g id="tx_iotcommu_4mxyvoub4171-fill" stroke="none" fill="#ffffff"><g><text style="font: 15px &quot;Roboto&quot;, sans-serif; white-space: pre;" font-size="15px" font-family="'Roboto', sans-serif"><tspan x="17.2" y="31" dominant-baseline="ideographic">IoT communication</tspan></text></g></g></g><g id="g-root-tx_function_1qbckb8uapzpr-fill" data-item-order="0" transform="translate(50, 290)"><g id="tx_function_1qbckb8uapzpr-fill" stroke="none" fill="#484848"><g><text style="font: bold 20px &quot;Roboto&quot;, sans-serif; white-space: pre;" font-weight="bold" font-size="20px" font-family="'Roboto', sans-serif"><tspan x="13.83" y="34" dominant-baseline="ideographic">Function</tspan></text></g></g></g><g id="g-root-tx_postgres_zlxn84uazv2c-fill" data-item-order="0" transform="translate(1070, 170)"><g id="tx_postgres_zlxn84uazv2c-fill" stroke="none" fill="#ffffff"><g><text style="font: bold 20px &quot;Roboto&quot;, sans-serif; white-space: pre;" font-weight="bold" font-size="20px" font-family="'Roboto', sans-serif"><tspan x="16.32" y="34" dominant-baseline="ideographic">PostgreSQL</tspan></text></g></g></g><g id="g-root-tx_datacoll_18i74k4uasumm-fill" data-item-order="0" transform="translate(212, 290)"><g id="tx_datacoll_18i74k4uasumm-fill" stroke="none" fill="#ffffff"><g><text style="font: 15px &quot;Roboto&quot;, sans-serif; white-space: pre;" font-size="15px" font-family="'Roboto', sans-serif"><tspan x="14.16" y="31" dominant-baseline="ideographic">Data collection</tspan></text></g></g></g><g id="g-root-tx_fastapi_v2zro4uayhac-fill" data-item-order="0" transform="translate(872, 170)"><g id="tx_fastapi_v2zro4uayhac-fill" stroke="none" fill="#ffffff"><g><text style="font: bold 20px &quot;Roboto&quot;, sans-serif; white-space: pre;" font-weight="bold" font-size="20px" font-family="'Roboto', sans-serif"><tspan x="16.72" y="34" dominant-baseline="ideographic">FastAPI</tspan></text></g></g></g><g id="g-root-tx_anomalyd_18k2jtguau70u-fill" data-item-order="0" transform="translate(416, 290)"><g id="tx_anomalyd_18k2jtguau70u-fill" stroke="none" fill="#ffffff"><g><text style="font: 15px &quot;Roboto&quot;, sans-serif; white-space: pre;" font-size="15px" font-family="'Roboto', sans-serif"><tspan x="13.55" y="31" dominant-baseline="ideographic">Anomaly detection</tspan></text></g></g></g><g id="g-root-tx_reactjs_mbq310uavle4-fill" data-item-order="0" transform="translate(656, 170)"><g id="tx_reactjs_mbq310uavle4-fill" stroke="none" fill="#ffffff"><g><text style="font: bold 20px &quot;Roboto&quot;, sans-serif; white-space: pre;" font-weight="bold" font-size="20px" font-family="'Roboto', sans-serif"><tspan x="15.62" y="34" dominant-baseline="ideographic">React.js</tspan></text></g></g></g><g id="g-root-tx_datavisu_143mklwuavocu-fill" data-item-order="0" transform="translate(632, 290)"><g id="tx_datavisu_143mklwuavocu-fill" stroke="none" fill="#ffffff"><g><text style="font: 15px &quot;Roboto&quot;, sans-serif; white-space: pre;" font-size="15px" font-family="'Roboto', sans-serif"><tspan x="16.91" y="31" dominant-baseline="ideographic">Data visualization</tspan></text></g></g></g><g id="g-root-tx_raspberr_zmk4b8uau9l0-fill" data-item-order="0" transform="translate(422, 170)"><g id="tx_raspberr_zmk4b8uau9l0-fill" stroke="none" fill="#ffffff"><g><text style="font: bold 20px &quot;Roboto&quot;, sans-serif; white-space: pre;" font-weight="bold" font-size="20px" font-family="'Roboto', sans-serif"><tspan x="12.44" y="34" dominant-baseline="ideographic">Raspberry Pi</tspan></text></g></g></g><g id="g-root-tx_dataproc_1cviqc4uayh3a-fill" data-item-order="0" transform="translate(854, 290)"><g id="tx_dataproc_1cviqc4uayh3a-fill" stroke="none" fill="#ffffff"><g><text style="font: 15px &quot;Roboto&quot;, sans-serif; white-space: pre;" font-size="15px" font-family="'Roboto', sans-serif"><tspan x="15.82" y="31" dominant-baseline="ideographic">Data processing</tspan></text></g></g></g><g id="g-root-tx_esp32_qpo5w4uasuto-fill" data-item-order="0" transform="translate(230, 170)"><g id="tx_esp32_qpo5w4uasuto-fill" stroke="none" fill="#ffffff"><g><text style="font: bold 20px &quot;Roboto&quot;, sans-serif; white-space: pre;" font-weight="bold" font-size="20px" font-family="'Roboto', sans-serif"><tspan x="16.31" y="34" dominant-baseline="ideographic">ESP32</tspan></text></g></g></g><g id="g-root-tx_datastor_1heglw4uazuva-fill" data-item-order="0" transform="translate(1082, 290)"><g id="tx_datastor_1heglw4uazuva-fill" stroke="none" fill="#ffffff"><g><text style="font: 15px &quot;Roboto&quot;, sans-serif; white-space: pre;" font-size="15px" font-family="'Roboto', sans-serif"><tspan x="15.41" y="31" dominant-baseline="ideographic">Data storage</tspan></text></g></g></g><g id="g-root-ic_1_1lw5j9wuazt3c-fill" data-item-order="0" transform="translate(1322, 110)"></g><g id="g-root-tx_datatran_qtf0esub41z8-fill" data-item-order="0" transform="translate(1280, 290)"><g id="tx_datatran_qtf0esub41z8-fill" stroke="none" fill="#ffffff"><g><text style="font: 15px &quot;Roboto&quot;, sans-serif; white-space: pre;" font-size="15px" font-family="'Roboto', sans-serif"><tspan x="15.27" y="31" dominant-baseline="ideographic">Data transmission</tspan></text></g></g></g><g id="g-root-tx_usecase_18k2jtguaq22w-fill" data-item-order="0" transform="translate(38, 350)"><g id="tx_usecase_18k2jtguaq22w-fill" stroke="none" fill="#484848"><g><text style="font: bold 20px &quot;Roboto&quot;, sans-serif; white-space: pre;" font-weight="bold" font-size="20px" font-family="'Roboto', sans-serif"><tspan x="22.6" y="34" dominant-baseline="ideographic">Use case</tspan></text></g></g></g><g id="g-root-ic_1_1uo1p04uaygw8-fill" data-item-order="0" transform="translate(1106, 110)"></g><g id="g-root-tx_lightwei_hvwkwkuasumn-fill" data-item-order="0" transform="translate(200, 350)"><g id="tx_lightwei_hvwkwkuasumn-fill" stroke="none" fill="#ffffff"><g><text style="font: 15px &quot;Roboto&quot;, sans-serif; white-space: pre;" font-size="15px" font-family="'Roboto', sans-serif"><tspan x="14.76" y="31" dominant-baseline="ideographic">Lightweight nodes</tspan></text></g></g></g><g id="g-root-ic_clou_1qbz1ecuavo5c-fill" data-item-order="0" transform="translate(890, 110)"></g><g id="g-root-tx_edgeai_hxs05wuau70v-fill" data-item-order="0" transform="translate(452, 350)"><g id="tx_edgeai_hxs05wuau70v-fill" stroke="none" fill="#ffffff"><g><text style="font: 15px &quot;Roboto&quot;, sans-serif; white-space: pre;" font-size="15px" font-family="'Roboto', sans-serif"><tspan x="14.6" y="31" dominant-baseline="ideographic">Edge AI</tspan></text></g></g></g><g id="g-root-ic_pent_1usf0lwuau6tc-fill" data-item-order="0" transform="translate(674, 110)"></g><g id="g-root-tx_userinte_dhc0ycuavocv-fill" data-item-order="0" transform="translate(644, 350)"><g id="tx_userinte_dhc0ycuavocv-fill" stroke="none" fill="#ffffff"><g><text style="font: 15px &quot;Roboto&quot;, sans-serif; white-space: pre;" font-size="15px" font-family="'Roboto', sans-serif"><tspan x="17.3" y="31" dominant-baseline="ideographic">User interface</tspan></text></g></g></g><g id="g-root-ic_pi_1uqjlckuasuf4-fill" data-item-order="0" transform="translate(458, 110)"></g><g id="g-root-tx_apibacke_de7nisuayeq7-fill" data-item-order="0" transform="translate(866, 350)"><g id="tx_apibacke_de7nisuayeq7-fill" stroke="none" fill="#ffffff"><g><text style="font: 15px &quot;Roboto&quot;, sans-serif; white-space: pre;" font-size="15px" font-family="'Roboto', sans-serif"><tspan x="16.18" y="31" dominant-baseline="ideographic">API backend</tspan></text></g></g></g><g id="g-root-ic_32_1qclihguaq1vu-fill" data-item-order="0" transform="translate(242, 110)"></g><g id="g-root-tx_database_dhc0ycuaztaf-fill" data-item-order="0" transform="translate(1064, 350)"><g id="tx_database_dhc0ycuaztaf-fill" stroke="none" fill="#ffffff"><g><text style="font: 15px &quot;Roboto&quot;, sans-serif; white-space: pre;" font-size="15px" font-family="'Roboto', sans-serif"><tspan x="17.27" y="31" dominant-baseline="ideographic">Database storage</tspan></text></g></g></g><g id="g-root-tx_iotlakem_hxs05wuaq22x-fill" data-item-order="0" transform="translate(620, 38)"><g id="tx_iotlakem_hxs05wuaq22x-fill" stroke="none" fill="#484848"><g><text style="font: 20px &quot;Roboto&quot;, sans-serif; white-space: pre;" font-size="20px" font-family="'Roboto', sans-serif"><tspan x="14.94" y="34" dominant-baseline="ideographic">IoT Lake Monitoring System Comparison</tspan></text></g></g></g><g id="g-root-tx_iotdatat_18k2jtgub42rv-fill" data-item-order="0" transform="translate(1286, 230)"><g id="tx_iotdatat_18k2jtgub42rv-fill" stroke="none" fill="#ffffff"><g><text style="font: 15px &quot;Roboto&quot;, sans-serif; white-space: pre;" font-size="15px" font-family="'Roboto', sans-serif"><tspan x="14.67" y="31" dominant-baseline="ideographic">IoT data transfer</tspan></text></g></g></g><g id="g-root-cp_1_g-1_1_8xrob8uaolc2-stroke" data-item-order="-540090" transform="translate(170, 86)"><g id="cp_1_g-1_1_8xrob8uaolc2-stroke" fill="none" stroke-linecap="round" stroke-linejoin="round" stroke-miterlimit="4" stroke="#ffffff" stroke-width="2"><g><path d="M 22 10C 15.373 10 10 15.373 10 22M 202 130L 202 22M 10 22L 10 130M 22 10L 190 10M 202 22C 202 15.3826 196.6174 10 190 10"></path></g></g></g><g id="g-root-cp_0_g-0_1_1lrs7o4uaonik-stroke" data-item-order="-540062" transform="translate(170, 206)"><g id="cp_0_g-0_1_1lrs7o4uaonik-stroke" fill="none" stroke-linecap="round" stroke-linejoin="round" stroke-miterlimit="4" stroke="#ffffff" stroke-width="2"><g><path d="M 10 190C 10 196.6274 15.3726 202 22 202M 190 202L 22 202M 190 202C 196.6274 202 202 196.6274 202 190M 202 10L 202 190M 10 190L 10 10M 202 10L 10 10"></path></g></g></g><g id="g-root-cp_1-1_cell-1-1_1414o9guaompy-stroke" data-item-order="-540041" transform="translate(182, 218)"><g id="cp_1-1_cell-1-1_1414o9guaompy-stroke" fill="none" stroke-linecap="round" stroke-linejoin="round" stroke-miterlimit="4" stroke="#484848" stroke-width="2"><g><path d="M 10 22L 10 16C 10 12.6863 12.6863 10 16 10L 22 10M 178 22L 178 46M 10 46L 10 22M 22 10L 166 10M 10 46L 10 52C 10 55.3137 12.6863 58 16 58L 22 58M 178 22L 178 16C 178 12.6863 175.3137 10 172 10L 166 10M 166 58L 22 58M 178 46L 178 52C 178 55.3137 175.3137 58 172 58L 166 58"></path></g></g></g><g id="g-root-cp_2-1_cell-2-1_qqamz8uaol54-stroke" data-item-order="-540023" transform="translate(182, 278)"><g id="cp_2-1_cell-2-1_qqamz8uaol54-stroke" fill="none" stroke-linecap="round" stroke-linejoin="round" stroke-miterlimit="4" stroke="#484848" stroke-width="2"><g><path d="M 10 22L 10 16C 10 12.6863 12.6863 10 16 10L 22 10M 178 22L 178 46M 10 46L 10 22M 22 10L 166 10M 10 46L 10 52C 10 55.3137 12.6863 58 16 58L 22 58M 178 22L 178 16C 178 12.6863 175.3137 10 172 10L 166 10M 166 58L 22 58M 178 46L 178 52C 178 55.3137 175.3137 58 172 58L 166 58"></path></g></g></g><g id="g-root-cp_3-1_cell-3-1_403bouaol56-stroke" data-item-order="-540005" transform="translate(182, 338)"><g id="cp_3-1_cell-3-1_403bouaol56-stroke" fill="none" stroke-linecap="round" stroke-linejoin="round" stroke-miterlimit="4" stroke="#484848" stroke-width="2"><g><path d="M 10 22L 10 16C 10 12.6863 12.6863 10 16 10L 22 10M 178 22L 178 46M 10 46L 10 22M 22 10L 166 10M 10 46L 10 52C 10 55.3137 12.6863 58 16 58L 22 58M 178 22L 178 16C 178 12.6863 175.3137 10 172 10L 166 10M 166 58L 22 58M 178 46L 178 52C 178 55.3137 175.3137 58 172 58L 166 58"></path></g></g></g><g id="g-root-cp_1_g-1_2_1hdu4t0uaonb8-stroke" data-item-order="-539986" transform="translate(386, 86)"><g id="cp_1_g-1_2_1hdu4t0uaonb8-stroke" fill="none" stroke-linecap="round" stroke-linejoin="round" stroke-miterlimit="4" stroke="#ffffff" stroke-width="2"><g><path d="M 22 10C 15.373 10 10 15.373 10 22M 202 130L 202 22M 10 22L 10 130M 22 10L 190 10M 202 22C 202 15.3826 196.6174 10 190 10"></path></g></g></g><g id="g-root-cp_0_g-0_2_v7d39wuaomj2-stroke" data-item-order="-539958" transform="translate(386, 206)"><g id="cp_0_g-0_2_v7d39wuaomj2-stroke" fill="none" stroke-linecap="round" stroke-linejoin="round" stroke-miterlimit="4" stroke="#ffffff" stroke-width="2"><g><path d="M 10 190C 10 196.6274 15.3726 202 22 202M 190 202L 22 202M 190 202C 196.6274 202 202 196.6274 202 190M 202 10L 202 190M 10 190L 10 10M 202 10L 10 10"></path></g></g></g><g id="g-root-cp_1-2_cell-1-2_dgpjv8uaolqg-stroke" data-item-order="-539937" transform="translate(398, 218)"><g id="cp_1-2_cell-1-2_dgpjv8uaolqg-stroke" fill="none" stroke-linecap="round" stroke-linejoin="round" stroke-miterlimit="4" stroke="#484848" stroke-width="2"><g><path d="M 10 22L 10 16C 10 12.6863 12.6863 10 16 10L 22 10M 178 22L 178 46M 10 46L 10 22M 22 10L 166 10M 10 46L 10 52C 10 55.3137 12.6863 58 16 58L 22 58M 178 22L 178 16C 178 12.6863 175.3137 10 172 10L 166 10M 166 58L 22 58M 178 46L 178 52C 178 55.3137 175.3137 58 172 58L 166 58"></path></g></g></g><g id="g-root-cp_2-2_cell-2-2_591hwuaonbe-stroke" data-item-order="-539919" transform="translate(398, 278)"><g id="cp_2-2_cell-2-2_591hwuaonbe-stroke" fill="none" stroke-linecap="round" stroke-linejoin="round" stroke-miterlimit="4" stroke="#484848" stroke-width="2"><g><path d="M 10 22L 10 16C 10 12.6863 12.6863 10 16 10L 22 10M 178 22L 178 46M 10 46L 10 22M 22 10L 166 10M 10 46L 10 52C 10 55.3137 12.6863 58 16 58L 22 58M 178 22L 178 16C 178 12.6863 175.3137 10 172 10L 166 10M 166 58L 22 58M 178 46L 178 52C 178 55.3137 175.3137 58 172 58L 166 58"></path></g></g></g><g id="g-root-cp_3-2_cell-3-2_1lvj26suaoljg-stroke" data-item-order="-539901" transform="translate(398, 338)"><g id="cp_3-2_cell-3-2_1lvj26suaoljg-stroke" fill="none" stroke-linecap="round" stroke-linejoin="round" stroke-miterlimit="4" stroke="#484848" stroke-width="2"><g><path d="M 10 22L 10 16C 10 12.6863 12.6863 10 16 10L 22 10M 178 22L 178 46M 10 46L 10 22M 22 10L 166 10M 10 46L 10 52C 10 55.3137 12.6863 58 16 58L 22 58M 178 22L 178 16C 178 12.6863 175.3137 10 172 10L 166 10M 166 58L 22 58M 178 46L 178 52C 178 55.3137 175.3137 58 172 58L 166 58"></path></g></g></g><g id="g-root-cp_1_g-1_3_144vis4uaokqu-stroke" data-item-order="-539882" transform="translate(602, 86)"><g id="cp_1_g-1_3_144vis4uaokqu-stroke" fill="none" stroke-linecap="round" stroke-linejoin="round" stroke-miterlimit="4" stroke="#ffffff" stroke-width="2"><g><path d="M 22 10C 15.373 10 10 15.373 10 22M 202 130L 202 22M 10 22L 10 130M 22 10L 190 10M 202 22C 202 15.3826 196.6174 10 190 10"></path></g></g></g><g id="g-root-cp_0_g-0_3_dikz4kuaokqw-stroke" data-item-order="-539854" transform="translate(602, 206)"><g id="cp_0_g-0_3_dikz4kuaokqw-stroke" fill="none" stroke-linecap="round" stroke-linejoin="round" stroke-miterlimit="4" stroke="#ffffff" stroke-width="2"><g><path d="M 10 190C 10 196.6274 15.3726 202 22 202M 190 202L 22 202M 190 202C 196.6274 202 202 196.6274 202 190M 202 10L 202 190M 10 190L 10 10M 202 10L 10 10"></path></g></g></g><g id="g-root-cp_1-3_cell-1-3_1usf0lwuaomwy-stroke" data-item-order="-539833" transform="translate(614, 218)"><g id="cp_1-3_cell-1-3_1usf0lwuaomwy-stroke" fill="none" stroke-linecap="round" stroke-linejoin="round" stroke-miterlimit="4" stroke="#484848" stroke-width="2"><g><path d="M 10 22L 10 16C 10 12.6863 12.6863 10 16 10L 22 10M 178 22L 178 46M 10 46L 10 22M 22 10L 166 10M 10 46L 10 52C 10 55.3137 12.6863 58 16 58L 22 58M 178 22L 178 16C 178 12.6863 175.3137 10 172 10L 166 10M 166 58L 22 58M 178 46L 178 52C 178 55.3137 175.3137 58 172 58L 166 58"></path></g></g></g><g id="g-root-cp_2-3_cell-2-3_vb3xskuaokjw-stroke" data-item-order="-539815" transform="translate(614, 278)"><g id="cp_2-3_cell-2-3_vb3xskuaokjw-stroke" fill="none" stroke-linecap="round" stroke-linejoin="round" stroke-miterlimit="4" stroke="#484848" stroke-width="2"><g><path d="M 10 22L 10 16C 10 12.6863 12.6863 10 16 10L 22 10M 178 22L 178 46M 10 46L 10 22M 22 10L 166 10M 10 46L 10 52C 10 55.3137 12.6863 58 16 58L 22 58M 178 22L 178 16C 178 12.6863 175.3137 10 172 10L 166 10M 166 58L 22 58M 178 46L 178 52C 178 55.3137 175.3137 58 172 58L 166 58"></path></g></g></g><g id="g-root-cp_3-3_cell-3-3_qvafo4uaolc6-stroke" data-item-order="-539797" transform="translate(614, 338)"><g id="cp_3-3_cell-3-3_qvafo4uaolc6-stroke" fill="none" stroke-linecap="round" stroke-linejoin="round" stroke-miterlimit="4" stroke="#484848" stroke-width="2"><g><path d="M 10 22L 10 16C 10 12.6863 12.6863 10 16 10L 22 10M 178 22L 178 46M 10 46L 10 22M 22 10L 166 10M 10 46L 10 52C 10 55.3137 12.6863 58 16 58L 22 58M 178 22L 178 16C 178 12.6863 175.3137 10 172 10L 166 10M 166 58L 22 58M 178 46L 178 52C 178 55.3137 175.3137 58 172 58L 166 58"></path></g></g></g><g id="g-root-cp_1_g-1_4_8zw0kuaolc8-stroke" data-item-order="-539778" transform="translate(818, 86)"><g id="cp_1_g-1_4_8zw0kuaolc8-stroke" fill="none" stroke-linecap="round" stroke-linejoin="round" stroke-miterlimit="4" stroke="#ffffff" stroke-width="2"><g><path d="M 22 10C 15.373 10 10 15.373 10 22M 202 130L 202 22M 10 22L 10 130M 22 10L 190 10M 202 22C 202 15.3826 196.6174 10 190 10"></path></g></g></g><g id="g-root-cp_0_g-0_4_1hitxhwuaonia-stroke" data-item-order="-539750" transform="translate(818, 206)"><g id="cp_0_g-0_4_1hitxhwuaonia-stroke" fill="none" stroke-linecap="round" stroke-linejoin="round" stroke-miterlimit="4" stroke="#ffffff" stroke-width="2"><g><path d="M 10 190C 10 196.6274 15.3726 202 22 202M 190 202L 22 202M 190 202C 196.6274 202 202 196.6274 202 190M 202 10L 202 190M 10 190L 10 10M 202 10L 10 10"></path></g></g></g><g id="g-root-cp_1-4_cell-1-4_vccvysuaomq4-stroke" data-item-order="-539729" transform="translate(830, 218)"><g id="cp_1-4_cell-1-4_vccvysuaomq4-stroke" fill="none" stroke-linecap="round" stroke-linejoin="round" stroke-miterlimit="4" stroke="#484848" stroke-width="2"><g><path d="M 10 22L 10 16C 10 12.6863 12.6863 10 16 10L 22 10M 178 22L 178 46M 10 46L 10 22M 22 10L 166 10M 10 46L 10 52C 10 55.3137 12.6863 58 16 58L 22 58M 178 22L 178 16C 178 12.6863 175.3137 10 172 10L 166 10M 166 58L 22 58M 178 46L 178 52C 178 55.3137 175.3137 58 172 58L 166 58"></path></g></g></g><g id="g-root-cp_2-4_cell-2-4_dbpr6cuaq0hy-stroke" data-item-order="-539711" transform="translate(830, 278)"><g id="cp_2-4_cell-2-4_dbpr6cuaq0hy-stroke" fill="none" stroke-linecap="round" stroke-linejoin="round" stroke-miterlimit="4" stroke="#484848" stroke-width="2"><g><path d="M 10 22L 10 16C 10 12.6863 12.6863 10 16 10L 22 10M 178 22L 178 46M 10 46L 10 22M 22 10L 166 10M 10 46L 10 52C 10 55.3137 12.6863 58 16 58L 22 58M 178 22L 178 16C 178 12.6863 175.3137 10 172 10L 166 10M 166 58L 22 58M 178 46L 178 52C 178 55.3137 175.3137 58 172 58L 166 58"></path></g></g></g><g id="g-root-cp_3-4_cell-3-4_8vw91wuaq1a8-stroke" data-item-order="-539693" transform="translate(830, 338)"><g id="cp_3-4_cell-3-4_8vw91wuaq1a8-stroke" fill="none" stroke-linecap="round" stroke-linejoin="round" stroke-miterlimit="4" stroke="#484848" stroke-width="2"><g><path d="M 10 22L 10 16C 10 12.6863 12.6863 10 16 10L 22 10M 178 22L 178 46M 10 46L 10 22M 22 10L 166 10M 10 46L 10 52C 10 55.3137 12.6863 58 16 58L 22 58M 178 22L 178 16C 178 12.6863 175.3137 10 172 10L 166 10M 166 58L 22 58M 178 46L 178 52C 178 55.3137 175.3137 58 172 58L 166 58"></path></g></g></g><g id="g-root-cp_1_g-1_5_1lqj9hwuaq0ay-stroke" data-item-order="-539674" transform="translate(1034, 86)"><g id="cp_1_g-1_5_1lqj9hwuaq0ay-stroke" fill="none" stroke-linecap="round" stroke-linejoin="round" stroke-miterlimit="4" stroke="#ffffff" stroke-width="2"><g><path d="M 22 10C 15.373 10 10 15.373 10 22M 202 130L 202 22M 10 22L 10 130M 22 10L 190 10M 202 22C 202 15.3826 196.6174 10 190 10"></path></g></g></g><g id="g-root-cp_0_g-0_5_v48pucuaq0b0-stroke" data-item-order="-539646" transform="translate(1034, 206)"><g id="cp_0_g-0_5_v48pucuaq0b0-stroke" fill="none" stroke-linecap="round" stroke-linejoin="round" stroke-miterlimit="4" stroke="#ffffff" stroke-width="2"><g><path d="M 10 190C 10 196.6274 15.3726 202 22 202M 190 202L 22 202M 190 202C 196.6274 202 202 196.6274 202 190M 202 10L 202 190M 10 190L 10 10M 202 10L 10 10"></path></g></g></g><g id="g-root-cp_1-5_cell-1-5_ddl6fouapzie-stroke" data-item-order="-539625" transform="translate(1046, 218)"><g id="cp_1-5_cell-1-5_ddl6fouapzie-stroke" fill="none" stroke-linecap="round" stroke-linejoin="round" stroke-miterlimit="4" stroke="#484848" stroke-width="2"><g><path d="M 10 22L 10 16C 10 12.6863 12.6863 10 16 10L 22 10M 178 22L 178 46M 10 46L 10 22M 22 10L 166 10M 10 46L 10 52C 10 55.3137 12.6863 58 16 58L 22 58M 178 22L 178 16C 178 12.6863 175.3137 10 172 10L 166 10M 166 58L 22 58M 178 46L 178 52C 178 55.3137 175.3137 58 172 58L 166 58"></path></g></g></g><g id="g-root-cp_2-5_cell-2-5_1unf7x0uaq1og-stroke" data-item-order="-539607" transform="translate(1046, 278)"><g id="cp_2-5_cell-2-5_1unf7x0uaq1og-stroke" fill="none" stroke-linecap="round" stroke-linejoin="round" stroke-miterlimit="4" stroke="#484848" stroke-width="2"><g><path d="M 10 22L 10 16C 10 12.6863 12.6863 10 16 10L 22 10M 178 22L 178 46M 10 46L 10 22M 22 10L 166 10M 10 46L 10 52C 10 55.3137 12.6863 58 16 58L 22 58M 178 22L 178 16C 178 12.6863 175.3137 10 172 10L 166 10M 166 58L 22 58M 178 46L 178 52C 178 55.3137 175.3137 58 172 58L 166 58"></path></g></g></g><g id="g-root-cp_3-5_cell-3-5_1hcl6msuaq03m-stroke" data-item-order="-539589" transform="translate(1046, 338)"><g id="cp_3-5_cell-3-5_1hcl6msuaq03m-stroke" fill="none" stroke-linecap="round" stroke-linejoin="round" stroke-miterlimit="4" stroke="#484848" stroke-width="2"><g><path d="M 10 22L 10 16C 10 12.6863 12.6863 10 16 10L 22 10M 178 22L 178 46M 10 46L 10 22M 22 10L 166 10M 10 46L 10 52C 10 55.3137 12.6863 58 16 58L 22 58M 178 22L 178 16C 178 12.6863 175.3137 10 172 10L 166 10M 166 58L 22 58M 178 46L 178 52C 178 55.3137 175.3137 58 172 58L 166 58"></path></g></g></g><g id="g-root-cp_1_g-1_6_1414o9guaq1ok-stroke" data-item-order="-539570" transform="translate(1250, 86)"><g id="cp_1_g-1_6_1414o9guaq1ok-stroke" fill="none" stroke-linecap="round" stroke-linejoin="round" stroke-miterlimit="4" stroke="#ffffff" stroke-width="2"><g><path d="M 22 10C 15.373 10 10 15.373 10 22M 202 130L 202 22M 10 22L 10 130M 22 10L 190 10M 202 22C 202 15.3826 196.6174 10 190 10"></path></g></g></g><g id="g-root-cp_0_g-0_6_hunmqcuaq0we-stroke" data-item-order="-539540" transform="translate(1250, 206)"><g id="cp_0_g-0_6_hunmqcuaq0we-stroke" fill="none" stroke-linecap="round" stroke-linejoin="round" stroke-miterlimit="4" stroke="#ffffff" stroke-width="2"><g><path d="M 10 190C 10 196.6274 15.3726 202 22 202M 190 202L 22 202M 190 202C 196.6274 202 202 196.6274 202 190M 202 10L 202 190M 10 190L 10 10M 202 10L 10 10"></path></g></g></g><g id="g-root-cp_1-6_cell-1-6_403bouaq03s-stroke" data-item-order="-539519" transform="translate(1262, 218)"><g id="cp_1-6_cell-1-6_403bouaq03s-stroke" fill="none" stroke-linecap="round" stroke-linejoin="round" stroke-miterlimit="4" stroke="#484848" stroke-width="2"><g><path d="M 10 22L 10 16C 10 12.6863 12.6863 10 16 10L 22 10M 178 22L 178 46M 10 46L 10 22M 22 10L 166 10M 10 46L 10 52C 10 55.3137 12.6863 58 16 58L 22 58M 178 22L 178 16C 178 12.6863 175.3137 10 172 10L 166 10M 166 58L 22 58M 178 46L 178 52C 178 55.3137 175.3137 58 172 58L 166 58"></path></g></g></g><g id="g-root-cp_2-6_cell-2-6_1heglw4uapz42-stroke" data-item-order="-539501" transform="translate(1262, 278)"><g id="cp_2-6_cell-2-6_1heglw4uapz42-stroke" fill="none" stroke-linecap="round" stroke-linejoin="round" stroke-miterlimit="4" stroke="#484848" stroke-width="2"><g><path d="M 10 22L 10 16C 10 12.6863 12.6863 10 16 10L 22 10M 178 22L 178 46M 10 46L 10 22M 22 10L 166 10M 10 46L 10 52C 10 55.3137 12.6863 58 16 58L 22 58M 178 22L 178 16C 178 12.6863 175.3137 10 172 10L 166 10M 166 58L 22 58M 178 46L 178 52C 178 55.3137 175.3137 58 172 58L 166 58"></path></g></g></g><g id="g-root-cp_3-6_cell-3-6_v7d39wuaq1ho-stroke" data-item-order="-539483" transform="translate(1262, 338)"><g id="cp_3-6_cell-3-6_v7d39wuaq1ho-stroke" fill="none" stroke-linecap="round" stroke-linejoin="round" stroke-miterlimit="4" stroke="#484848" stroke-width="2"><g><path d="M 10 22L 10 16C 10 12.6863 12.6863 10 16 10L 22 10M 178 22L 178 46M 10 46L 10 22M 22 10L 166 10M 10 46L 10 52C 10 55.3137 12.6863 58 16 58L 22 58M 178 22L 178 16C 178 12.6863 175.3137 10 172 10L 166 10M 166 58L 22 58M 178 46L 178 52C 178 55.3137 175.3137 58 172 58L 166 58"></path></g></g></g><g id="g-root-tx_frontend_1qaq384uavlz9-stroke" data-item-order="0" transform="translate(626, 230)"></g><g id="g-root-tx_backendp_4gp80kuayhad-stroke" data-item-order="0" transform="translate(842, 230)"></g><g id="g-root-tx_edgecomp_1uqjlckuau7t1-stroke" data-item-order="0" transform="translate(422, 230)"></g><g id="g-root-tx_sensorno_3dm8kuasutp-stroke" data-item-order="0" transform="translate(218, 230)"></g><g id="g-root-tx_structur_8zn3kkuazv2d-stroke" data-item-order="0" transform="translate(1076, 230)"></g><g id="g-root-tx_purpose_dgpjv8uaq0p2-stroke" data-item-order="0" transform="translate(50, 230)"></g><g id="g-root-tx_mqtt_dgpjv8ub41e2-stroke" data-item-order="0" transform="translate(1316, 170)"></g><g id="g-root-tx_iotcommu_4mxyvoub4171-stroke" data-item-order="0" transform="translate(1274, 350)"></g><g id="g-root-tx_function_1qbckb8uapzpr-stroke" data-item-order="0" transform="translate(50, 290)"></g><g id="g-root-tx_postgres_zlxn84uazv2c-stroke" data-item-order="0" transform="translate(1070, 170)"></g><g id="g-root-tx_datacoll_18i74k4uasumm-stroke" data-item-order="0" transform="translate(212, 290)"></g><g id="g-root-tx_fastapi_v2zro4uayhac-stroke" data-item-order="0" transform="translate(872, 170)"></g><g id="g-root-tx_anomalyd_18k2jtguau70u-stroke" data-item-order="0" transform="translate(416, 290)"></g><g id="g-root-tx_reactjs_mbq310uavle4-stroke" data-item-order="0" transform="translate(656, 170)"></g><g id="g-root-tx_datavisu_143mklwuavocu-stroke" data-item-order="0" transform="translate(632, 290)"></g><g id="g-root-tx_raspberr_zmk4b8uau9l0-stroke" data-item-order="0" transform="translate(422, 170)"></g><g id="g-root-tx_dataproc_1cviqc4uayh3a-stroke" data-item-order="0" transform="translate(854, 290)"></g><g id="g-root-tx_esp32_qpo5w4uasuto-stroke" data-item-order="0" transform="translate(230, 170)"></g><g id="g-root-tx_datastor_1heglw4uazuva-stroke" data-item-order="0" transform="translate(1082, 290)"></g><g id="g-root-ic_1_1lw5j9wuazt3c-stroke" data-item-order="0" transform="translate(1322, 110)"><g id="ic_1_1lw5j9wuazt3c-stroke" fill="none" stroke-linecap="round" stroke-linejoin="round" stroke-miterlimit="4" stroke="#ffffff" stroke-width="2"><g><path d="M 13 11L 55 11C 55 11 57 11 57 13L 57 55C 57 55 57 57 55 57L 13 57C 13 57 11 57 11 55L 11 13C 11 13 11 11 13 11M 33 44C 33 46.209141 31.209139 48 29 48C 26.790861 48 25 46.209141 25 44L 25 37C 25 34.790863 26.790861 33 29 33C 31.209139 33 33 34.790863 33 37ZM 33 51L 26.950001 47.433998M 37 33L 45 33M 41 33L 41 49"></path></g></g></g><g id="g-root-tx_datatran_qtf0esub41z8-stroke" data-item-order="0" transform="translate(1280, 290)"></g><g id="g-root-tx_usecase_18k2jtguaq22w-stroke" data-item-order="0" transform="translate(38, 350)"></g><g id="g-root-ic_1_1uo1p04uaygw8-stroke" data-item-order="0" transform="translate(1106, 110)"><g id="ic_1_1uo1p04uaygw8-stroke" fill="none" stroke-linecap="round" stroke-linejoin="round" stroke-miterlimit="4" stroke="#ffffff" stroke-width="2"><g><path d="M 13 11.008L 55 11.008C 55 11.008 57 11.008 57 13.007999L 57 55.007999C 57 55.007999 57 57.007999 55 57.007999L 13 57.007999C 13 57.007999 11 57.007999 11 55.007999L 11 13.007999C 11 13.007999 11 11.008 13 11.008M 27 32.982002L 22.708 32.982002C 20.993504 32.988117 19.506767 34.168858 19.112568 35.837433C 18.718369 37.506004 19.519508 39.227257 21.049999 40L 24.950001 41.950001C 26.487463 42.719353 27.294447 44.444626 26.899485 46.117855C 26.504522 47.791088 25.011213 48.973381 23.292 48.974003L 19 48.973999M 38.950001 43.958C 38.950001 46.167137 37.159142 47.958 34.950001 47.958C 32.74086 47.958 30.950001 46.167137 30.950001 43.958L 30.950001 36.958C 30.950001 34.748863 32.74086 32.958 34.950001 32.958C 37.159142 32.958 38.950001 34.748863 38.950001 36.958ZM 38.950001 50.958L 32.900002 47.391998M 42.950001 32.958L 42.950001 45.958C 42.950001 47.614857 44.293148 48.958 45.950001 48.958L 50.950001 48.958"></path></g></g></g><g id="g-root-tx_lightwei_hvwkwkuasumn-stroke" data-item-order="0" transform="translate(200, 350)"></g><g id="g-root-ic_clou_1qbz1ecuavo5c-stroke" data-item-order="0" transform="translate(890, 110)"><g id="ic_clou_1qbz1ecuavo5c-stroke" fill="none" stroke-linecap="round" stroke-linejoin="round" stroke-miterlimit="4" stroke="#ffffff" stroke-width="2"><g><path d="M 49.534 56.731998L 49.534 43.664001M 46.919998 43.664001L 52.147999 43.664001M 46.919998 56.731998L 52.147999 56.731998M 32.237999 56.731998L 32.237999 51.504002M 32.237999 51.504002L 36.16 51.504002C 38.324745 51.5037 40.07946 49.748745 40.07946 47.584C 40.07946 45.419254 38.324745 43.664299 36.16 43.664001L 32.237999 43.664001ZM 14.941999 56.731998L 16.417999 46.894001C 16.713694 45.051308 18.303732 43.696075 20.17 43.696075C 22.03627 43.696075 23.626307 45.051308 23.922001 46.894001L 25.4 56.731998M 15.628 52.158001L 24.712 52.158001M 57 29.268C 57.00251 26.553617 55.899284 23.955311 53.944599 22.071943C 51.98991 20.188576 49.352413 19.182644 46.639999 19.285999C 43.916706 13.503402 37.61792 10.304704 31.342236 11.517374C 25.066551 12.730043 20.412907 18.045113 20.040001 24.426001C 17.828627 23.962803 15.526266 24.520912 13.772458 25.945301C 12.01865 27.369688 11.000196 29.508636 11 31.768C 11 39.388 19 39.267998 19 39.267998L 48 39.267998C 48 39.267998 57 38.096001 57 29.268Z"></path></g></g></g><g id="g-root-tx_edgeai_hxs05wuau70v-stroke" data-item-order="0" transform="translate(452, 350)"></g><g id="g-root-ic_pent_1usf0lwuau6tc-stroke" data-item-order="0" transform="translate(674, 110)"><g id="ic_pent_1usf0lwuau6tc-stroke" fill="none" stroke-linecap="round" stroke-linejoin="round" stroke-miterlimit="4" stroke="#ffffff" stroke-width="2"><g><path d="M 32.820602 13.01816C 33.5214 12.50888 34.4706 12.50888 35.1716 13.01816L 55.649601 27.896259C 56.350601 28.40554 56.643799 29.308281 56.376202 30.132401L 48.554199 54.205601C 48.286598 55.029598 47.5186 55.587601 46.652199 55.587601L 21.34004 55.587601C 20.473579 55.587601 19.705681 55.029598 19.43792 54.205601L 11.61605 30.132401C 11.348302 29.308281 11.641618 28.40554 12.3426 27.896259L 32.820602 13.01816ZM 43.404598 38.497002C 42.996201 40.154999 42.1446 41.725998 40.849197 43.0214C 37.0662 46.804199 30.933001 46.804199 27.150221 43.0214C 23.36738 39.2384 23.36738 33.105202 27.150221 29.322439C 30.933001 25.539581 37.0662 25.539581 40.849197 29.322439L 42.813202 31.2864M 37.3204 31.296801L 42.8214 31.296801L 42.8214 25.795761"></path></g></g></g><g id="g-root-tx_userinte_dhc0ycuavocv-stroke" data-item-order="0" transform="translate(644, 350)"></g><g id="g-root-ic_pi_1uqjlckuasuf4-stroke" data-item-order="0" transform="translate(458, 110)"><g id="ic_pi_1uqjlckuasuf4-stroke" fill="none" stroke-linecap="round" stroke-linejoin="round" stroke-miterlimit="4" stroke="#ffffff" stroke-width="2"><g><path d="M 34 18.299999C 31.6 18.299999 29.4 19.1 28 20.5C 27.4 20.299999 26.6 20.1 26 20.1C 22 20.1 18.799999 23.299999 18.799999 27.1C 18.799999 27.9 19 28.700001 19.200001 29.5C 16.200001 29.700001 14 32.099998 14 35.099998C 14 37.5 15.6 39.700001 17.799999 40.299999C 17.200001 41.299999 16.799999 42.5 16.799999 43.900002C 16.799999 47.700001 20 50.900002 24 50.900002C 24.799999 50.900002 25.6 50.700001 26.4 50.5L 26.4 50.900002C 26.4 53.900002 29.799999 56.5 34 56.5C 38.200001 56.5 41.599998 54.099998 41.599998 50.900002L 41.599998 50.5C 42.400002 50.700001 43.200001 50.900002 44 50.900002C 48 50.900002 51.200001 47.700001 51.200001 43.900002C 51.200001 42.5 50.799999 41.299999 50.200001 40.299999C 52.400002 39.5 54 37.5 54 35.099998C 54 32.099998 51.799999 29.9 48.799999 29.5C 49 28.700001 49.200001 27.9 49.200001 27.1C 49.200001 23.299999 46 20.1 42 20.1C 41.200001 20.1 40.599998 20.299999 40 20.5C 38.599998 19.299999 36.400002 18.299999 34 18.299999ZM 34 47.5C 37.534599 47.5 40.400002 44.992802 40.400002 41.900002C 40.400002 38.807198 37.534599 36.299999 34 36.299999C 30.465401 36.299999 27.6 38.807198 27.6 41.900002C 27.6 44.992802 30.465401 47.5 34 47.5ZM 36.0452 47.203201C 37.276802 47.819 39.329399 49.666401 41.587402 50.487598M 29.799999 37.700001C 23.6 38.900002 20.599979 32.299999 22.999981 28.1C 24.79998 25.1 28.4 24.5 31.200001 26.1C 33 27.1 34 28.9 34 30.9M 26.384359 50.487598C 28.84766 49.666401 30.6952 47.819 31.9268 47.203201M 24.484379 36.451401C 22.05368 36.451401 19.420441 38.0718 17.79998 40.299999M 38.200001 37.700001C 44.400002 38.700001 47.599998 32.099998 45 28.1C 43.200001 25.1 39.599998 24.5 36.799999 26.1C 35 27.1 34 28.9 34 30.9M 50.203201 40.287598C 48.773201 37.836201 45.913399 36.4062 43.462002 36.4062M 48.828201 29.4925C 47.809399 29.4925 46.7906 29.4925 45.771801 29.9M 22 30.1C 21 29.700001 20 29.5 19 29.700001M 33.927002 18.321781C 34.2286 16.39222 33.6054 14.32574 31.881599 13.17648C 28.481541 10.57648 21.081539 11.77648 21.081539 11.77648C 21.081539 11.77648 21.842899 17.247921 24.390621 20.265621M 34.0704 18.304859C 33.775002 16.38014 34.399597 14.32238 36.118401 13.17648C 39.518402 10.57648 46.9184 11.77648 46.9184 11.77648C 46.9184 11.77648 46.1548 17.076139 43.734402 20.3125"></path></g></g></g><g id="g-root-tx_apibacke_de7nisuayeq7-stroke" data-item-order="0" transform="translate(866, 350)"></g><g id="g-root-ic_32_1qclihguaq1vu-stroke" data-item-order="0" transform="translate(242, 110)"><g id="ic_32_1qclihguaq1vu-stroke" fill="none" stroke-linecap="round" stroke-linejoin="round" stroke-miterlimit="4" stroke="#ffffff" stroke-width="2"><g><path d="M 22 26L 28 26C 30.209139 26 32 27.790861 32 30C 32 32.209137 30.209139 34 28 34L 28 34C 30.209139 34 32 35.790863 32 38C 32 40.209137 30.209139 42 28 42L 22 42M 46 42L 36 42L 43 35.82C 45 34.080002 46.48 32.860001 45.900002 30C 45.388828 27.482607 43.053265 25.762131 40.497505 26.020288C 37.941742 26.278446 35.997417 28.431234 36 31M 17 17L 51 17C 51 17 53 17 53 19L 53 49C 53 49 53 51 51 51L 17 51C 17 51 15 51 15 49L 15 19C 15 19 15 17 17 17M 34 13L 34 17M 23 13L 23 17M 11 34L 15 34M 11 43L 15 43M 11 25L 15 25M 57 34L 53 34M 57 43L 53 43M 57 25L 53 25M 34 55L 34 51M 23 55L 23 51M 45 13L 45 17M 45 55L 45 51"></path></g></g></g><g id="g-root-tx_database_dhc0ycuaztaf-stroke" data-item-order="0" transform="translate(1064, 350)"></g><g id="g-root-tx_iotlakem_hxs05wuaq22x-stroke" data-item-order="0" transform="translate(620, 38)"></g><g id="g-root-tx_iotdatat_18k2jtgub42rv-stroke" data-item-order="0" transform="translate(1286, 230)"></g></g></g></svg>